<svg xmlns="http://www.w3.org/2000/svg">

    <symbol id="code" viewBox="0 0 24 24">
        <path d="M14.6,16.6L19.2,12L14.6,7.4L16,6L22,12L16,18L14.6,16.6M9.4,16.6L4.8,12L9.4,7.4L8,6L2,12L8,18L9.4,16.6Z"/>
    </symbol>

    <symbol id="sync" viewBox="0 0 24 24">
        <path d="M12,18A6,6 0 0,1 6,12C6,11 6.25,10.03 6.7,9.2L5.24,7.74C4.46,8.97 4,10.43 4,12A8,8 0 0,0 12,20V23L16,19L12,15M12,4V1L8,5L12,9V6A6,6 0 0,1 18,12C18,13 17.75,13.97 17.3,14.8L18.76,16.26C19.54,15.03 20,13.57 20,12A8,8 0 0,0 12,4Z" />
    </symbol>
    
    <symbol id="github" viewBox="0 0 24 24">
        <path d="M12,2A10,10 0 0,0 2,12C2,16.42 4.87,20.17 8.84,21.5C9.34,21.58 9.5,21.27 9.5,21C9.5,20.77 9.5,20.14 9.5,19.31C6.73,19.91 6.14,17.97 6.14,17.97C5.68,16.81 5.03,16.5 5.03,16.5C4.12,15.88 5.1,15.9 5.1,15.9C6.1,15.97 6.63,16.93 6.63,16.93C7.5,18.45 8.97,18 9.54,17.76C9.63,17.11 9.89,16.67 10.17,16.42C7.95,16.17 5.62,15.31 5.62,11.5C5.62,10.39 6,9.5 6.65,8.79C6.55,8.54 6.2,7.5 6.75,6.15C6.75,6.15 7.59,5.88 9.5,7.17C10.29,6.95 11.15,6.84 12,6.84C12.85,6.84 13.71,6.95 14.5,7.17C16.41,5.88 17.25,6.15 17.25,6.15C17.8,7.5 17.45,8.54 17.35,8.79C18,9.5 18.38,10.39 18.38,11.5C18.38,15.32 16.04,16.16 13.81,16.41C14.17,16.72 14.5,17.33 14.5,18.26C14.5,19.6 14.5,20.68 14.5,21C14.5,21.27 14.66,21.59 15.17,21.5C19.14,20.16 22,16.42 22,12A10,10 0 0,0 12,2Z" />
    </symbol>
    
    <symbol id="gitface" viewBox="0 0 24 24">
        <path d="M20.38,8.53C20.54,8.13 21.06,6.54 20.21,4.39C20.21,4.39 18.9,4 15.91,6C14.66,5.67 13.33,5.62 12,5.62C10.68,5.62 9.34,5.67 8.09,6C5.1,3.97 3.79,4.39 3.79,4.39C2.94,6.54 3.46,8.13 3.63,8.53C2.61,9.62 2,11 2,12.72C2,19.16 6.16,20.61 12,20.61C17.79,20.61 22,19.16 22,12.72C22,11 21.39,9.62 20.38,8.53M12,19.38C7.88,19.38 4.53,19.19 4.53,15.19C4.53,14.24 5,13.34 5.8,12.61C7.14,11.38 9.43,12.03 12,12.03C14.59,12.03 16.85,11.38 18.2,12.61C19,13.34 19.5,14.23 19.5,15.19C19.5,19.18 16.13,19.38 12,19.38M8.86,13.12C8.04,13.12 7.36,14.12 7.36,15.34C7.36,16.57 8.04,17.58 8.86,17.58C9.69,17.58 10.36,16.58 10.36,15.34C10.36,14.11 9.69,13.12 8.86,13.12M15.14,13.12C14.31,13.12 13.64,14.11 13.64,15.34C13.64,16.58 14.31,17.58 15.14,17.58C15.96,17.58 16.64,16.58 16.64,15.34C16.64,14.11 16,13.12 15.14,13.12Z" />
    </symbol>


    <symbol id="home_icon" viewBox="0 0 24 24">
        <path 
            d="M10,20V14H14V20H19V12H22L12,3L2,12H5V20H10Z"
        ></path>
    </symbol>

    <symbol id="contact_icon" viewBox="0 0 24 24">
        <path 
            d="M6.62,10.79C8.06,13.62 10.38,15.94 13.21,17.38L15.41,15.18C15.69,14.9 16.08,14.82 16.43,14.93C17.55,15.3 18.75,15.5 20,15.5A1,1 0 0,1 21,16.5V20A1,1 0 0,1 20,21A17,17 0 0,1 3,4A1,1 0 0,1 4,3H7.5A1,1 0 0,1 8.5,4C8.5,5.25 8.7,6.45 9.07,7.57C9.18,7.92 9.1,8.31 8.82,8.59L6.62,10.79Z">
        </path>
    </symbol>

    <symbol id="project_icon" viewBox="0 0 24 24">
        <path  
            d="M10,2H14A2,2 0 0,1 16,4V6H20A2,2 0 0,1 22,8V19A2,2 0 0,1 20,21H4C2.89,21 2,20.1 2,19V8C2,6.89 2.89,6 4,6H8V4C8,2.89 8.89,2 10,2M14,6V4H10V6H14Z">
        </path>
    </symbol>

    <symbol id="speaker_icon" viewBox="0 0 24 24">
        <path 
            d="M14,3.23V5.29C16.89,6.15 19,8.83 19,12C19,15.17 16.89,17.84 14,18.7V20.77C18,19.86 21,16.28 21,12C21,7.72 18,4.14 14,3.23M16.5,12C16.5,10.23 15.5,8.71 14,7.97V16C15.5,15.29 16.5,13.76 16.5,12M3,9V15H7L12,20V4L7,9H3Z">
        </path>        
    </symbol>

    <symbol id="message" viewBox="0 0 24 24">
        <path d="M20 2H4c-1.1 0-1.99.9-1.99 2L2 22l4-4h14c1.1 0 2-.9 2-2V4c0-1.1-.9-2-2-2zm-2 12H6v-2h12v2zm0-3H6V9h12v2zm0-3H6V6h12v2z"></path>
    </symbol>

    <symbol id="check" viewBox="0 0 24 24">
        <path
            d="M12,2A10,10 0 0,1 22,12A10,10 0 0,1 12,22A10,10 0 0,1 2,12A10,10 0 0,1 12,2M11,16.5L18,9.5L16.59,8.09L11,13.67L7.91,10.59L6.5,12L11,16.5Z">
        </path>
    </symbol>

    <symbol id="assign" viewBox="0 0 24 24">
        <path
        d="M19 3h-4.18C14.4 1.84 13.3 1 12 1c-1.3 0-2.4.84-2.82 2H5c-1.1 0-2 .9-2 2v14c0 1.1.9 2 2 2h14c1.1 0 2-.9 2-2V5c0-1.1-.9-2-2-2zm-7 0c.55 0 1 .45 1 1s-.45 1-1 1-1-.45-1-1 .45-1 1-1zm2 14H7v-2h7v2zm3-4H7v-2h10v2zm0-4H7V7h10v2z"/>
        </path>
    </symbol>


    <symbol id="bitbucket" viewBox="0 0 24 24">
        <path d="M21.43,2C21.79,2.07 22.03,2.42 22,2.82L21.12,8.7L19.27,21.4C19.2,21.75 18.95,22 18.63,22H5.37C5.05,22 4.8,21.75 4.73,21.4L2.88,8.7L2,2.82C1.97,2.42 2.21,2.07 2.57,2H21.43M14.08,15.26L15.1,8.7H8.9L9.92,15.26H14.08Z" />
    </symbol>


</svg>